<svg xmlns="http://www.w3.org/2000/svg" xmlns:xlink="http://www.w3.org/1999/xlink" width="500" zoomAndPan="magnify" viewBox="0 0 375 374.999991" height="500" preserveAspectRatio="xMidYMid meet" version="1.0"><defs><g/><clipPath id="fc2abc5b5d"><path d="M 89.308594 107 L 285.679688 107 L 285.679688 214.257812 L 89.308594 214.257812 Z M 89.308594 107 " clip-rule="nonzero"/></clipPath><clipPath id="fe2242b702"><path d="M 173 121 L 227.683594 121 L 227.683594 205.5 L 173 205.5 Z M 173 121 " clip-rule="nonzero"/></clipPath><clipPath id="7e33a0e114"><path d="M 147.433594 112.5 L 202 112.5 L 202 196 L 147.433594 196 Z M 147.433594 112.5 " clip-rule="nonzero"/></clipPath></defs><rect x="-37.5" width="450" fill="#ffffff" y="-37.499999" height="449.999989" fill-opacity="1"/><rect x="-37.5" width="450" fill="#ffffff" y="-37.499999" height="449.999989" fill-opacity="1"/><g clip-path="url(#fc2abc5b5d)"><path fill="#201d1d" d="M 220.007812 119 C 224.296875 120.375 228.515625 122.03125 232.59375 123.933594 C 250.605469 132.335938 266.519531 144.644531 279.210938 159.949219 C 279.753906 160.597656 279.753906 161.519531 279.210938 162.164062 C 266.519531 177.472656 250.605469 189.761719 232.59375 198.183594 C 228.515625 200.082031 224.296875 201.738281 220.007812 203.117188 C 243.246094 185.160156 247.5 151.757812 229.542969 128.535156 C 226.789062 124.960938 223.582031 121.753906 220.007812 119 Z M 154.964844 119 C 131.722656 136.972656 127.472656 170.359375 145.425781 193.582031 C 148.183594 197.152344 151.390625 200.363281 154.964844 203.117188 C 150.65625 201.738281 146.4375 200.082031 142.359375 198.183594 C 124.351562 189.761719 108.449219 177.472656 95.757812 162.164062 C 95.21875 161.519531 95.21875 160.597656 95.757812 159.949219 C 108.449219 144.644531 124.351562 132.355469 142.359375 123.933594 C 146.4375 122.03125 150.65625 120.375 154.964844 119.015625 Z M 186.691406 113.367188 C 212.71875 112.933594 234.128906 133.679688 234.582031 159.6875 C 234.582031 160.144531 234.582031 160.613281 234.582031 161.066406 C 234.914062 187.078125 214.117188 208.449219 188.105469 208.800781 C 162.078125 209.128906 140.703125 188.316406 140.371094 162.304688 C 140.371094 161.886719 140.371094 161.46875 140.371094 161.066406 C 140.039062 135.109375 160.75 113.785156 186.691406 113.367188 Z M 191.660156 107.929688 C 173.792969 107.265625 156.007812 110.875 139.8125 118.441406 C 121.003906 127.246094 104.355469 140.09375 91.105469 156.082031 C 88.714844 158.972656 88.714844 163.160156 91.105469 166.035156 C 104.355469 182.023438 121.003906 194.871094 139.8125 203.675781 C 170.027344 217.796875 204.960938 217.796875 235.191406 203.675781 C 253.984375 194.871094 270.636719 182.023438 283.882812 166.035156 C 286.273438 163.160156 286.273438 158.972656 283.882812 156.082031 C 270.636719 140.09375 253.984375 127.246094 235.191406 118.441406 C 221.523438 112.0625 206.722656 108.488281 191.660156 107.929688 " fill-opacity="1" fill-rule="nonzero"/></g><path fill="#201d1d" d="M 205.347656 161.066406 C 205.539062 151.199219 197.726562 143.039062 187.859375 142.832031 C 177.992188 142.621094 169.835938 150.449219 169.625 160.316406 C 169.625 160.5625 169.625 160.804688 169.625 161.066406 C 169.414062 170.917969 177.242188 179.09375 187.109375 179.285156 C 196.976562 179.492188 205.136719 171.667969 205.347656 161.796875 C 205.347656 161.554688 205.347656 161.3125 205.347656 161.066406 " fill-opacity="1" fill-rule="nonzero"/><path fill="#201d1d" d="M 124.402344 99.144531 L 136.484375 109.21875 C 137.792969 110.265625 139.691406 110.054688 140.738281 108.75 C 141.75 107.492188 141.59375 105.644531 140.355469 104.566406 L 128.273438 94.488281 C 126.964844 93.441406 125.066406 93.652344 124.019531 94.957031 C 122.992188 96.230469 123.164062 98.078125 124.402344 99.144531 " fill-opacity="1" fill-rule="nonzero"/><path fill="#201d1d" d="M 246.679688 94.488281 L 234.582031 104.566406 C 233.308594 105.644531 233.136719 107.5625 234.199219 108.835938 C 235.296875 110.125 237.199219 110.300781 238.488281 109.21875 L 250.570312 99.144531 C 251.824219 98.042969 251.980469 96.125 250.863281 94.871094 C 249.800781 93.632812 247.972656 93.476562 246.679688 94.488281 " fill-opacity="1" fill-rule="nonzero"/><path fill="#201d1d" d="M 184.460938 80.246094 L 184.460938 95.96875 C 184.511719 97.644531 185.925781 98.949219 187.597656 98.882812 C 189.183594 98.8125 190.441406 97.554688 190.511719 95.96875 L 190.511719 80.246094 C 190.441406 78.570312 189.046875 77.265625 187.355469 77.332031 C 185.785156 77.402344 184.511719 78.660156 184.460938 80.246094 " fill-opacity="1" fill-rule="nonzero"/><path fill="#3871c1" d="M 186.941406 144.84375 C 183.210938 145.109375 180.183594 148.109375 179.890625 151.84375 C 179.636719 155.058594 181.382812 157.898438 184.015625 159.25 L 184.015625 169.328125 C 184.015625 171.253906 185.574219 172.8125 187.5 172.8125 C 189.425781 172.8125 190.984375 171.253906 190.984375 169.328125 L 190.984375 159.25 C 193.449219 157.984375 195.132812 155.417969 195.132812 152.457031 C 195.132812 148.058594 191.410156 144.523438 186.941406 144.84375 " fill-opacity="1" fill-rule="nonzero"/><g clip-path="url(#fe2242b702)"><path fill="#7ed957" d="M 202.914062 121.449219 L 173.082031 138.558594 L 198.160156 131.773438 L 216.25 142.21875 C 216.25 157.3125 210.238281 171.476562 200.136719 182.136719 C 192.234375 190.476562 178.289062 198.875 178.289062 198.875 C 181.1875 201.136719 184.261719 203.214844 187.5 205.085938 C 212.292969 190.769531 227.566406 164.316406 227.566406 135.683594 L 202.914062 121.449219 " fill-opacity="1" fill-rule="nonzero"/></g><g clip-path="url(#7e33a0e114)"><path fill="#3871c1" d="M 178.253906 185.375 C 165.992188 174.578125 158.75 158.917969 158.75 142.21875 L 158.785156 142.199219 L 198.730469 119.035156 L 187.5 112.550781 L 147.433594 135.683594 C 147.433594 158.667969 157.273438 180.246094 173.984375 195.269531 C 173.984375 195.269531 190.523438 186.636719 201.527344 175.117188 L 178.253906 185.375 " fill-opacity="1" fill-rule="nonzero"/></g><g fill="#201d1d" fill-opacity="1"><g transform="translate(107.363317, 236.097304)"><g><path d="M 8.597656 -8.15625 C 6.3125 -9.792969 5.558594 -10.359375 5.828125 -11.070312 C 5.933594 -11.34375 6.394531 -11.511719 6.792969 -11.511719 C 7.820312 -11.511719 8.703125 -11.199219 9.394531 -10.945312 C 9.792969 -10.800781 9.941406 -11.007812 10.003906 -11.261719 C 10.042969 -11.511719 10.421875 -13.441406 10.464844 -13.695312 C 10.527344 -13.988281 10.359375 -14.21875 10.042969 -14.300781 C 9.332031 -14.554688 7.863281 -14.929688 6.375 -14.929688 C 4.699219 -14.929688 1.550781 -14.679688 1.175781 -11.554688 C 0.859375 -9.039062 2.433594 -7.359375 4.214844 -6.144531 C 5.914062 -4.96875 6.5 -4.675781 6.5 -4.066406 C 6.480469 -3.460938 5.703125 -3.1875 4.71875 -3.230469 C 3.941406 -3.292969 3 -3.734375 2.203125 -4.089844 C 1.972656 -4.195312 1.761719 -4.027344 1.71875 -3.902344 C 1.675781 -3.753906 1.152344 -1.824219 1.089844 -1.53125 C 1.007812 -1.214844 1.070312 -1.046875 1.257812 -0.921875 C 1.78125 -0.585938 3.167969 0.25 5.410156 0.25 C 8.933594 0.25 10.527344 -1.214844 10.96875 -2.9375 C 11.429688 -4.738281 10.882812 -6.542969 8.597656 -8.15625 Z M 8.597656 -8.15625 "/></g></g></g><g fill="#201d1d" fill-opacity="1"><g transform="translate(126.590858, 236.097304)"><g><path d="M 15.917969 -0.734375 C 15.726562 -1.195312 11.113281 -13.796875 10.945312 -14.15625 C 10.777344 -14.511719 10.652344 -14.679688 10.273438 -14.679688 L 6.753906 -14.679688 C 6.375 -14.679688 6.25 -14.511719 6.101562 -14.15625 C 5.933594 -13.796875 1.320312 -1.238281 1.132812 -0.734375 C 0.945312 -0.273438 1.152344 0 1.511719 0 L 4.90625 0 C 5.535156 0 5.640625 -0.210938 5.851562 -0.753906 C 5.890625 -0.859375 6.039062 -1.277344 6.25 -1.949219 L 10.777344 -1.949219 C 10.988281 -1.277344 11.136719 -0.859375 11.175781 -0.753906 C 11.40625 -0.210938 11.492188 0 12.121094 0 L 15.539062 0 C 15.894531 0 16.085938 -0.273438 15.917969 -0.734375 Z M 7.402344 -5.558594 C 7.78125 -6.6875 8.15625 -7.882812 8.515625 -9.039062 C 8.890625 -7.882812 9.269531 -6.6875 9.625 -5.558594 Z M 7.402344 -5.558594 "/></g></g></g><g fill="#201d1d" fill-opacity="1"><g transform="translate(150.661275, 236.097304)"><g><path d="M 11.175781 -14.679688 L 1.574219 -14.679688 C 1.277344 -14.679688 1.046875 -14.449219 1.046875 -14.15625 L 1.046875 -0.523438 C 1.046875 -0.230469 1.300781 0 1.574219 0 L 4.863281 0 C 5.136719 0 5.390625 -0.230469 5.390625 -0.523438 L 5.390625 -5.535156 L 10.066406 -5.535156 C 10.359375 -5.535156 10.589844 -5.765625 10.589844 -6.058594 L 10.589844 -8.617188 C 10.589844 -8.914062 10.359375 -9.144531 10.066406 -9.144531 L 5.390625 -9.144531 L 5.390625 -11.070312 L 11.175781 -11.070312 C 11.449219 -11.070312 11.679688 -11.304688 11.679688 -11.597656 L 11.679688 -14.15625 C 11.679688 -14.449219 11.449219 -14.679688 11.175781 -14.679688 Z M 11.175781 -14.679688 "/></g></g></g><g fill="#201d1d" fill-opacity="1"><g transform="translate(170.433901, 236.097304)"><g><path d="M 11.21875 -3.605469 L 5.367188 -3.605469 L 5.367188 -5.535156 L 10.066406 -5.535156 C 10.339844 -5.535156 10.589844 -5.765625 10.589844 -6.058594 L 10.589844 -8.617188 C 10.589844 -8.914062 10.339844 -9.144531 10.066406 -9.144531 L 5.367188 -9.144531 L 5.367188 -11.070312 L 11.15625 -11.070312 C 11.429688 -11.070312 11.679688 -11.304688 11.679688 -11.597656 L 11.679688 -14.15625 C 11.679688 -14.449219 11.429688 -14.679688 11.15625 -14.679688 L 1.574219 -14.679688 C 1.277344 -14.679688 1.046875 -14.449219 1.046875 -14.15625 L 1.046875 -0.523438 C 1.046875 -0.230469 1.277344 0 1.574219 0 L 11.21875 0 C 11.511719 0 11.742188 -0.230469 11.742188 -0.523438 L 11.742188 -3.082031 C 11.742188 -3.375 11.511719 -3.605469 11.21875 -3.605469 Z M 11.21875 -3.605469 "/></g></g></g><g fill="#3871c1" fill-opacity="1"><g transform="translate(190.273468, 236.097304)"><g><path d="M 6.835938 -14.679688 L 1.574219 -14.679688 C 1.300781 -14.679688 1.046875 -14.425781 1.046875 -14.15625 L 1.046875 -0.523438 C 1.046875 -0.230469 1.300781 0 1.574219 0 L 4.863281 0 C 5.136719 0 5.390625 -0.230469 5.390625 -0.523438 L 5.390625 -3.3125 L 6.835938 -3.3125 C 11.804688 -3.3125 13.589844 -6.164062 13.589844 -9.144531 C 13.589844 -12.265625 11.199219 -14.679688 6.835938 -14.679688 Z M 6.5625 -6.921875 L 5.390625 -6.921875 L 5.390625 -11.070312 L 6.523438 -11.070312 C 8.722656 -11.070312 9.144531 -9.75 9.144531 -9.101562 C 9.144531 -8.449219 8.847656 -6.921875 6.5625 -6.921875 Z M 6.5625 -6.921875 "/></g></g></g><g fill="#3871c1" fill-opacity="1"><g transform="translate(211.953889, 236.097304)"><g><path d="M 11.21875 -3.605469 L 5.367188 -3.605469 L 5.367188 -5.535156 L 10.066406 -5.535156 C 10.339844 -5.535156 10.589844 -5.765625 10.589844 -6.058594 L 10.589844 -8.617188 C 10.589844 -8.914062 10.339844 -9.144531 10.066406 -9.144531 L 5.367188 -9.144531 L 5.367188 -11.070312 L 11.15625 -11.070312 C 11.429688 -11.070312 11.679688 -11.304688 11.679688 -11.597656 L 11.679688 -14.15625 C 11.679688 -14.449219 11.429688 -14.679688 11.15625 -14.679688 L 1.574219 -14.679688 C 1.277344 -14.679688 1.046875 -14.449219 1.046875 -14.15625 L 1.046875 -0.523438 C 1.046875 -0.230469 1.277344 0 1.574219 0 L 11.21875 0 C 11.511719 0 11.742188 -0.230469 11.742188 -0.523438 L 11.742188 -3.082031 C 11.742188 -3.375 11.511719 -3.605469 11.21875 -3.605469 Z M 11.21875 -3.605469 "/></g></g></g><g fill="#3871c1" fill-opacity="1"><g transform="translate(231.789409, 236.097304)"><g><path d="M 11.21875 -3.605469 L 5.367188 -3.605469 L 5.367188 -5.535156 L 10.066406 -5.535156 C 10.339844 -5.535156 10.589844 -5.765625 10.589844 -6.058594 L 10.589844 -8.617188 C 10.589844 -8.914062 10.339844 -9.144531 10.066406 -9.144531 L 5.367188 -9.144531 L 5.367188 -11.070312 L 11.15625 -11.070312 C 11.429688 -11.070312 11.679688 -11.304688 11.679688 -11.597656 L 11.679688 -14.15625 C 11.679688 -14.449219 11.429688 -14.679688 11.15625 -14.679688 L 1.574219 -14.679688 C 1.277344 -14.679688 1.046875 -14.449219 1.046875 -14.15625 L 1.046875 -0.523438 C 1.046875 -0.230469 1.277344 0 1.574219 0 L 11.21875 0 C 11.511719 0 11.742188 -0.230469 11.742188 -0.523438 L 11.742188 -3.082031 C 11.742188 -3.375 11.511719 -3.605469 11.21875 -3.605469 Z M 11.21875 -3.605469 "/></g></g></g><g fill="#3871c1" fill-opacity="1"><g transform="translate(251.624931, 236.097304)"><g><path d="M 14.847656 -0.734375 C 14.636719 -1.113281 11.46875 -5.890625 10.609375 -7.171875 C 11.535156 -8.847656 13.964844 -13.714844 14.113281 -14.007812 C 14.34375 -14.425781 14.21875 -14.679688 13.609375 -14.679688 L 9.855469 -14.679688 C 9.476562 -14.679688 9.269531 -14.53125 9.058594 -14.15625 C 8.976562 -13.988281 7.589844 -11.261719 6.5 -9.144531 L 5.390625 -9.144531 L 5.390625 -14.15625 C 5.390625 -14.449219 5.136719 -14.679688 4.863281 -14.679688 L 1.574219 -14.679688 C 1.300781 -14.679688 1.046875 -14.449219 1.046875 -14.15625 L 1.046875 -0.523438 C 1.046875 -0.230469 1.300781 0 1.574219 0 L 4.863281 0 C 5.136719 0 5.390625 -0.230469 5.390625 -0.523438 L 5.390625 -5.535156 L 6.5625 -5.535156 C 7.800781 -3.648438 9.519531 -1.070312 9.730469 -0.753906 C 10.066406 -0.273438 10.359375 0 10.800781 0 L 14.46875 0 C 14.824219 0 15.097656 -0.316406 14.847656 -0.734375 Z M 14.847656 -0.734375 "/></g></g></g><g fill="#201d1d" fill-opacity="1"><g transform="translate(121.382033, 251.549998)"><g><path d="M 5.90625 -3.546875 L 6.859375 -3.546875 L 6.859375 -0.8125 C 6.515625 -0.519531 6.109375 -0.296875 5.640625 -0.140625 C 5.179688 0.00390625 4.703125 0.078125 4.203125 0.078125 C 3.503906 0.078125 2.867188 -0.0703125 2.296875 -0.375 C 1.734375 -0.6875 1.289062 -1.113281 0.96875 -1.65625 C 0.644531 -2.207031 0.484375 -2.820312 0.484375 -3.5 C 0.484375 -4.175781 0.644531 -4.785156 0.96875 -5.328125 C 1.289062 -5.878906 1.734375 -6.304688 2.296875 -6.609375 C 2.867188 -6.921875 3.515625 -7.078125 4.234375 -7.078125 C 4.785156 -7.078125 5.289062 -6.984375 5.75 -6.796875 C 6.207031 -6.617188 6.597656 -6.351562 6.921875 -6 L 6.296875 -5.375 C 5.734375 -5.914062 5.054688 -6.1875 4.265625 -6.1875 C 3.734375 -6.1875 3.253906 -6.070312 2.828125 -5.84375 C 2.410156 -5.613281 2.082031 -5.289062 1.84375 -4.875 C 1.601562 -4.46875 1.484375 -4.007812 1.484375 -3.5 C 1.484375 -2.988281 1.601562 -2.53125 1.84375 -2.125 C 2.082031 -1.71875 2.410156 -1.394531 2.828125 -1.15625 C 3.253906 -0.925781 3.734375 -0.8125 4.265625 -0.8125 C 4.890625 -0.8125 5.4375 -0.960938 5.90625 -1.265625 Z M 5.90625 -3.546875 "/></g></g></g><g fill="#201d1d" fill-opacity="1"><g transform="translate(130.198995, 251.549998)"><g><path d="M 3.953125 0.078125 C 3.015625 0.078125 2.285156 -0.1875 1.765625 -0.71875 C 1.242188 -1.25 0.984375 -2.015625 0.984375 -3.015625 L 0.984375 -7 L 1.984375 -7 L 1.984375 -3.0625 C 1.984375 -1.5625 2.640625 -0.8125 3.953125 -0.8125 C 4.597656 -0.8125 5.085938 -0.992188 5.421875 -1.359375 C 5.765625 -1.734375 5.9375 -2.300781 5.9375 -3.0625 L 5.9375 -7 L 6.90625 -7 L 6.90625 -3.015625 C 6.90625 -2.015625 6.644531 -1.25 6.125 -0.71875 C 5.601562 -0.1875 4.878906 0.078125 3.953125 0.078125 Z M 3.953125 0.078125 "/></g></g></g><g fill="#201d1d" fill-opacity="1"><g transform="translate(139.205883, 251.549998)"><g><path d="M 5.515625 -1.75 L 1.796875 -1.75 L 1.015625 0 L -0.015625 0 L 3.15625 -7 L 4.15625 -7 L 7.328125 0 L 6.28125 0 Z M 5.15625 -2.546875 L 3.65625 -5.984375 L 2.140625 -2.546875 Z M 5.15625 -2.546875 "/></g></g></g><g fill="#201d1d" fill-opacity="1"><g transform="translate(147.622999, 251.549998)"><g><path d="M 5.734375 0 L 4.21875 -2.15625 C 4.03125 -2.132812 3.882812 -2.125 3.78125 -2.125 L 2.046875 -2.125 L 2.046875 0 L 1.046875 0 L 1.046875 -7 L 3.78125 -7 C 4.6875 -7 5.398438 -6.78125 5.921875 -6.34375 C 6.441406 -5.914062 6.703125 -5.320312 6.703125 -4.5625 C 6.703125 -4.019531 6.566406 -3.554688 6.296875 -3.171875 C 6.035156 -2.796875 5.65625 -2.519531 5.15625 -2.34375 L 6.8125 0 Z M 3.75 -2.984375 C 4.382812 -2.984375 4.867188 -3.117188 5.203125 -3.390625 C 5.535156 -3.660156 5.703125 -4.050781 5.703125 -4.5625 C 5.703125 -5.0625 5.535156 -5.445312 5.203125 -5.71875 C 4.867188 -5.988281 4.382812 -6.125 3.75 -6.125 L 2.046875 -6.125 L 2.046875 -2.984375 Z M 3.75 -2.984375 "/></g></g></g><g fill="#201d1d" fill-opacity="1"><g transform="translate(155.99014, 251.549998)"><g><path d="M 1.046875 -7 L 4 -7 C 4.738281 -7 5.394531 -6.851562 5.96875 -6.5625 C 6.539062 -6.269531 6.984375 -5.859375 7.296875 -5.328125 C 7.617188 -4.796875 7.78125 -4.1875 7.78125 -3.5 C 7.78125 -2.8125 7.617188 -2.203125 7.296875 -1.671875 C 6.984375 -1.140625 6.539062 -0.726562 5.96875 -0.4375 C 5.394531 -0.144531 4.738281 0 4 0 L 1.046875 0 Z M 3.9375 -0.875 C 4.507812 -0.875 5.007812 -0.984375 5.4375 -1.203125 C 5.863281 -1.421875 6.191406 -1.726562 6.421875 -2.125 C 6.660156 -2.519531 6.78125 -2.976562 6.78125 -3.5 C 6.78125 -4.019531 6.660156 -4.476562 6.421875 -4.875 C 6.191406 -5.269531 5.863281 -5.578125 5.4375 -5.796875 C 5.007812 -6.015625 4.507812 -6.125 3.9375 -6.125 L 2.046875 -6.125 L 2.046875 -0.875 Z M 3.9375 -0.875 "/></g></g></g><g fill="#201d1d" fill-opacity="1"><g transform="translate(165.346886, 251.549998)"><g><path d="M 6.125 -0.875 L 6.125 0 L 1.046875 0 L 1.046875 -7 L 5.984375 -7 L 5.984375 -6.125 L 2.046875 -6.125 L 2.046875 -3.984375 L 5.5625 -3.984375 L 5.5625 -3.125 L 2.046875 -3.125 L 2.046875 -0.875 Z M 6.125 -0.875 "/></g></g></g><g fill="#201d1d" fill-opacity="1"><g transform="translate(173.144246, 251.549998)"><g><path d="M 1.046875 -7 L 4 -7 C 4.738281 -7 5.394531 -6.851562 5.96875 -6.5625 C 6.539062 -6.269531 6.984375 -5.859375 7.296875 -5.328125 C 7.617188 -4.796875 7.78125 -4.1875 7.78125 -3.5 C 7.78125 -2.8125 7.617188 -2.203125 7.296875 -1.671875 C 6.984375 -1.140625 6.539062 -0.726562 5.96875 -0.4375 C 5.394531 -0.144531 4.738281 0 4 0 L 1.046875 0 Z M 3.9375 -0.875 C 4.507812 -0.875 5.007812 -0.984375 5.4375 -1.203125 C 5.863281 -1.421875 6.191406 -1.726562 6.421875 -2.125 C 6.660156 -2.519531 6.78125 -2.976562 6.78125 -3.5 C 6.78125 -4.019531 6.660156 -4.476562 6.421875 -4.875 C 6.191406 -5.269531 5.863281 -5.578125 5.4375 -5.796875 C 5.007812 -6.015625 4.507812 -6.125 3.9375 -6.125 L 2.046875 -6.125 L 2.046875 -0.875 Z M 3.9375 -0.875 "/></g></g></g><g fill="#201d1d" fill-opacity="1"><g transform="translate(182.500992, 251.549998)"><g/></g></g><g fill="#201d1d" fill-opacity="1"><g transform="translate(186.289936, 251.549998)"><g><path d="M 5.765625 -3.625 C 6.171875 -3.507812 6.488281 -3.300781 6.71875 -3 C 6.945312 -2.707031 7.0625 -2.335938 7.0625 -1.890625 C 7.0625 -1.285156 6.832031 -0.816406 6.375 -0.484375 C 5.925781 -0.160156 5.265625 0 4.390625 0 L 1.046875 0 L 1.046875 -7 L 4.1875 -7 C 4.988281 -7 5.609375 -6.835938 6.046875 -6.515625 C 6.484375 -6.203125 6.703125 -5.757812 6.703125 -5.1875 C 6.703125 -4.820312 6.613281 -4.503906 6.4375 -4.234375 C 6.269531 -3.972656 6.046875 -3.769531 5.765625 -3.625 Z M 2.046875 -6.1875 L 2.046875 -3.953125 L 4.09375 -3.953125 C 4.613281 -3.953125 5.007812 -4.046875 5.28125 -4.234375 C 5.5625 -4.421875 5.703125 -4.695312 5.703125 -5.0625 C 5.703125 -5.4375 5.5625 -5.71875 5.28125 -5.90625 C 5.007812 -6.09375 4.613281 -6.1875 4.09375 -6.1875 Z M 4.34375 -0.8125 C 4.914062 -0.8125 5.34375 -0.90625 5.625 -1.09375 C 5.914062 -1.28125 6.0625 -1.570312 6.0625 -1.96875 C 6.0625 -2.75 5.488281 -3.140625 4.34375 -3.140625 L 2.046875 -3.140625 L 2.046875 -0.8125 Z M 4.34375 -0.8125 "/></g></g></g><g fill="#201d1d" fill-opacity="1"><g transform="translate(194.956958, 251.549998)"><g><path d="M 5.734375 0 L 4.21875 -2.15625 C 4.03125 -2.132812 3.882812 -2.125 3.78125 -2.125 L 2.046875 -2.125 L 2.046875 0 L 1.046875 0 L 1.046875 -7 L 3.78125 -7 C 4.6875 -7 5.398438 -6.78125 5.921875 -6.34375 C 6.441406 -5.914062 6.703125 -5.320312 6.703125 -4.5625 C 6.703125 -4.019531 6.566406 -3.554688 6.296875 -3.171875 C 6.035156 -2.796875 5.65625 -2.519531 5.15625 -2.34375 L 6.8125 0 Z M 3.75 -2.984375 C 4.382812 -2.984375 4.867188 -3.117188 5.203125 -3.390625 C 5.535156 -3.660156 5.703125 -4.050781 5.703125 -4.5625 C 5.703125 -5.0625 5.535156 -5.445312 5.203125 -5.71875 C 4.867188 -5.988281 4.382812 -6.125 3.75 -6.125 L 2.046875 -6.125 L 2.046875 -2.984375 Z M 3.75 -2.984375 "/></g></g></g><g fill="#201d1d" fill-opacity="1"><g transform="translate(203.324099, 251.549998)"><g><path d="M 4.203125 0.078125 C 3.503906 0.078125 2.867188 -0.0703125 2.296875 -0.375 C 1.734375 -0.6875 1.289062 -1.113281 0.96875 -1.65625 C 0.644531 -2.207031 0.484375 -2.820312 0.484375 -3.5 C 0.484375 -4.175781 0.644531 -4.785156 0.96875 -5.328125 C 1.289062 -5.878906 1.734375 -6.304688 2.296875 -6.609375 C 2.867188 -6.921875 3.503906 -7.078125 4.203125 -7.078125 C 4.910156 -7.078125 5.546875 -6.921875 6.109375 -6.609375 C 6.671875 -6.304688 7.113281 -5.878906 7.4375 -5.328125 C 7.757812 -4.785156 7.921875 -4.175781 7.921875 -3.5 C 7.921875 -2.820312 7.757812 -2.207031 7.4375 -1.65625 C 7.113281 -1.113281 6.671875 -0.6875 6.109375 -0.375 C 5.546875 -0.0703125 4.910156 0.078125 4.203125 0.078125 Z M 4.203125 -0.8125 C 4.722656 -0.8125 5.1875 -0.925781 5.59375 -1.15625 C 6 -1.394531 6.320312 -1.71875 6.5625 -2.125 C 6.800781 -2.53125 6.921875 -2.988281 6.921875 -3.5 C 6.921875 -4.007812 6.800781 -4.46875 6.5625 -4.875 C 6.320312 -5.28125 6 -5.597656 5.59375 -5.828125 C 5.1875 -6.066406 4.722656 -6.1875 4.203125 -6.1875 C 3.691406 -6.1875 3.226562 -6.066406 2.8125 -5.828125 C 2.394531 -5.597656 2.066406 -5.28125 1.828125 -4.875 C 1.597656 -4.46875 1.484375 -4.007812 1.484375 -3.5 C 1.484375 -2.988281 1.597656 -2.53125 1.828125 -2.125 C 2.066406 -1.71875 2.394531 -1.394531 2.8125 -1.15625 C 3.226562 -0.925781 3.691406 -0.8125 4.203125 -0.8125 Z M 4.203125 -0.8125 "/></g></g></g><g fill="#201d1d" fill-opacity="1"><g transform="translate(212.820795, 251.549998)"><g><path d="M 10.9375 -7 L 8.59375 0 L 7.546875 0 L 5.640625 -5.59375 L 3.734375 0 L 2.65625 0 L 0.3125 -7 L 1.34375 -7 L 3.234375 -1.3125 L 5.203125 -7 L 6.125 -7 L 8.0625 -1.28125 L 9.984375 -7 Z M 10.9375 -7 "/></g></g></g><g fill="#201d1d" fill-opacity="1"><g transform="translate(225.176368, 251.549998)"><g><path d="M 3.09375 0.078125 C 2.5625 0.078125 2.050781 0 1.5625 -0.15625 C 1.070312 -0.320312 0.6875 -0.535156 0.40625 -0.796875 L 0.78125 -1.578125 C 1.050781 -1.335938 1.394531 -1.140625 1.8125 -0.984375 C 2.226562 -0.835938 2.65625 -0.765625 3.09375 -0.765625 C 3.664062 -0.765625 4.09375 -0.863281 4.375 -1.0625 C 4.664062 -1.257812 4.8125 -1.519531 4.8125 -1.84375 C 4.8125 -2.082031 4.734375 -2.273438 4.578125 -2.421875 C 4.421875 -2.578125 4.226562 -2.695312 4 -2.78125 C 3.769531 -2.863281 3.445312 -2.953125 3.03125 -3.046875 C 2.5 -3.171875 2.070312 -3.296875 1.75 -3.421875 C 1.425781 -3.554688 1.148438 -3.753906 0.921875 -4.015625 C 0.691406 -4.273438 0.578125 -4.628906 0.578125 -5.078125 C 0.578125 -5.453125 0.675781 -5.789062 0.875 -6.09375 C 1.070312 -6.394531 1.367188 -6.632812 1.765625 -6.8125 C 2.171875 -6.988281 2.671875 -7.078125 3.265625 -7.078125 C 3.671875 -7.078125 4.070312 -7.023438 4.46875 -6.921875 C 4.875 -6.816406 5.222656 -6.660156 5.515625 -6.453125 L 5.1875 -5.65625 C 4.882812 -5.84375 4.566406 -5.984375 4.234375 -6.078125 C 3.898438 -6.179688 3.578125 -6.234375 3.265625 -6.234375 C 2.691406 -6.234375 2.265625 -6.128906 1.984375 -5.921875 C 1.703125 -5.710938 1.5625 -5.445312 1.5625 -5.125 C 1.5625 -4.882812 1.640625 -4.6875 1.796875 -4.53125 C 1.960938 -4.382812 2.160156 -4.269531 2.390625 -4.1875 C 2.628906 -4.101562 2.953125 -4.015625 3.359375 -3.921875 C 3.890625 -3.796875 4.3125 -3.664062 4.625 -3.53125 C 4.945312 -3.40625 5.222656 -3.210938 5.453125 -2.953125 C 5.679688 -2.691406 5.796875 -2.34375 5.796875 -1.90625 C 5.796875 -1.539062 5.695312 -1.207031 5.5 -0.90625 C 5.300781 -0.601562 5 -0.363281 4.59375 -0.1875 C 4.1875 -0.0078125 3.6875 0.078125 3.09375 0.078125 Z M 3.09375 0.078125 "/></g></g></g><g fill="#201d1d" fill-opacity="1"><g transform="translate(232.483924, 251.549998)"><g><path d="M 1.046875 -7 L 2.046875 -7 L 2.046875 0 L 1.046875 0 Z M 1.046875 -7 "/></g></g></g><g fill="#201d1d" fill-opacity="1"><g transform="translate(236.682703, 251.549998)"><g><path d="M 7.0625 -7 L 7.0625 0 L 6.25 0 L 2.046875 -5.21875 L 2.046875 0 L 1.046875 0 L 1.046875 -7 L 1.875 -7 L 6.0625 -1.78125 L 6.0625 -7 Z M 7.0625 -7 "/></g></g></g><g fill="#201d1d" fill-opacity="1"><g transform="translate(245.899511, 251.549998)"><g><path d="M 5.90625 -3.546875 L 6.859375 -3.546875 L 6.859375 -0.8125 C 6.515625 -0.519531 6.109375 -0.296875 5.640625 -0.140625 C 5.179688 0.00390625 4.703125 0.078125 4.203125 0.078125 C 3.503906 0.078125 2.867188 -0.0703125 2.296875 -0.375 C 1.734375 -0.6875 1.289062 -1.113281 0.96875 -1.65625 C 0.644531 -2.207031 0.484375 -2.820312 0.484375 -3.5 C 0.484375 -4.175781 0.644531 -4.785156 0.96875 -5.328125 C 1.289062 -5.878906 1.734375 -6.304688 2.296875 -6.609375 C 2.867188 -6.921875 3.515625 -7.078125 4.234375 -7.078125 C 4.785156 -7.078125 5.289062 -6.984375 5.75 -6.796875 C 6.207031 -6.617188 6.597656 -6.351562 6.921875 -6 L 6.296875 -5.375 C 5.734375 -5.914062 5.054688 -6.1875 4.265625 -6.1875 C 3.734375 -6.1875 3.253906 -6.070312 2.828125 -5.84375 C 2.410156 -5.613281 2.082031 -5.289062 1.84375 -4.875 C 1.601562 -4.46875 1.484375 -4.007812 1.484375 -3.5 C 1.484375 -2.988281 1.601562 -2.53125 1.84375 -2.125 C 2.082031 -1.71875 2.410156 -1.394531 2.828125 -1.15625 C 3.253906 -0.925781 3.734375 -0.8125 4.265625 -0.8125 C 4.890625 -0.8125 5.4375 -0.960938 5.90625 -1.265625 Z M 5.90625 -3.546875 "/></g></g></g></svg>