<svg xmlns="http://www.w3.org/2000/svg" xmlns:xlink="http://www.w3.org/1999/xlink" width="500" zoomAndPan="magnify" viewBox="0 0 375 374.999991" height="500" preserveAspectRatio="xMidYMid meet" version="1.0"><defs><g/><clipPath id="34f24258c5"><path d="M 48 22.078125 L 326.832031 22.078125 L 326.832031 352.828125 L 48 352.828125 Z M 48 22.078125 " clip-rule="nonzero"/></clipPath></defs><rect x="-37.5" width="450" fill="#ffffff" y="-37.499999" height="449.999989" fill-opacity="1"/><rect x="-37.5" width="450" fill="#74b9ff" y="-37.499999" height="449.999989" fill-opacity="1"/><g clip-path="url(#34f24258c5)"><path fill="#ffffff" d="M 324.121094 70.238281 C 319.988281 65.550781 313.132812 66.78125 307.617188 65.527344 C 267.675781 58.953125 230.152344 42.628906 194.308594 24.347656 C 192.605469 23.535156 190.824219 22.835938 189.039062 22.214844 L 186.453125 22.214844 C 180.230469 24.074219 174.714844 27.628906 168.855469 30.335938 C 137.417969 45.777344 104.449219 59.082031 69.789062 65.164062 C 64.804688 66.171875 59.613281 66.09375 54.734375 67.554688 C 50.863281 69.257812 48.019531 73.3125 48.238281 77.609375 C 47.839844 101.511719 48.703125 125.425781 50.574219 149.25 C 53.273438 179.566406 57.636719 210.058594 67.835938 238.867188 C 72.78125 252.230469 79.070312 265.363281 88.550781 276.144531 C 114.414062 306.761719 146.542969 331.851562 181.703125 350.949219 C 183.199219 351.699219 184.761719 352.300781 186.367188 352.78125 L 188.613281 352.78125 C 194.886719 351.015625 200.066406 346.839844 205.800781 343.898438 C 233.042969 327.769531 257.96875 307.703125 279.425781 284.421875 C 285.910156 277.085938 292.574219 269.738281 297.207031 261.0625 C 308.003906 241.886719 313.699219 220.359375 317.957031 198.925781 C 325.292969 159.855469 327.1875 119.964844 326.972656 80.289062 C 327.089844 76.742188 326.820312 72.859375 324.121094 70.238281 Z M 308.960938 190.144531 C 304.570312 214.214844 298.863281 238.722656 285.925781 259.796875 C 274.433594 276.429688 259.625 290.453125 244.464844 303.6875 C 226.980469 318.613281 207.753906 331.398438 187.582031 342.414062 C 152.191406 323.203125 119.777344 297.941406 94.199219 266.71875 C 81.015625 249.855469 74.777344 228.871094 69.84375 208.367188 C 60.316406 165.355469 58.054688 121.066406 58.671875 77.121094 C 104.328125 71.972656 146.996094 53.179688 187.589844 32.601562 C 228.171875 53.207031 270.890625 71.945312 316.5625 77.097656 C 317.136719 114.890625 315.328125 152.839844 308.960938 190.144531 Z M 308.960938 190.144531 " fill-opacity="1" fill-rule="nonzero"/></g><path fill="#ffffff" d="M 79.179688 95.066406 C 79.945312 135.730469 82.28125 176.832031 93.023438 216.238281 C 97.234375 230.765625 102.648438 245.527344 113.015625 256.875 C 133.871094 281.8125 159.734375 302.148438 187.601562 318.710938 C 217.246094 301.085938 244.625 279.097656 266.160156 252.019531 C 276.359375 238.023438 281.1875 221.027344 285.179688 204.398438 C 293.210938 168.566406 295.378906 131.699219 295.972656 95.078125 C 258.039062 87.753906 222.023438 72.984375 187.585938 55.78125 C 153.132812 72.972656 117.128906 87.773438 79.179688 95.066406 Z M 79.179688 95.066406 " fill-opacity="1" fill-rule="nonzero"/><g fill="#74b9ff" fill-opacity="1"><g transform="translate(137.097211, 230.245742)"><g><path d="M 50.804688 2.28125 C 74.414062 2.28125 93.953125 -9.605469 93.953125 -34.195312 C 93.953125 -59.757812 72.132812 -65.132812 54.875 -69.527344 C 42.660156 -72.460938 32.890625 -74.902344 32.890625 -82.882812 C 32.890625 -90.371094 40.871094 -93.789062 48.847656 -93.789062 C 58.128906 -93.789062 66.273438 -89.230469 66.273438 -79.296875 L 90.535156 -79.296875 C 90.535156 -102.09375 75.714844 -116.097656 49.5 -116.097656 C 24.261719 -116.097656 8.140625 -103.722656 8.140625 -81.902344 C 8.140625 -57.316406 28.984375 -52.269531 46.242188 -48.035156 C 58.617188 -45.265625 69.039062 -42.824219 69.039062 -33.867188 C 69.039062 -25.402344 59.921875 -20.515625 50.640625 -20.515625 C 40.542969 -20.515625 31.425781 -25.890625 31.425781 -36.800781 L 6.511719 -36.800781 C 6.511719 -12.375 24.585938 2.28125 50.804688 2.28125 Z M 50.804688 2.28125 "/></g></g></g></svg>